<svg width="212" height="48" viewBox="0 0 212 48" fill="none" xmlns="http://www.w3.org/2000/svg">
<path d="M21.2252 36.334H2.29049V10.7568H5.00091V33.8526H21.2252V36.334ZM33.2569 36.7157C27.1871 36.7157 23.3314 32.8982 23.3314 26.9048C23.3314 21.1786 27.1489 17.0938 33.2187 17.0938C38.7541 17.0938 42.6861 20.3005 42.6861 25.9122C42.6861 26.5994 42.6097 27.172 42.4952 27.6683H25.8891C26.0418 31.9057 28.2178 34.4634 33.2187 34.4634C37.647 34.4634 39.7084 32.8219 39.7084 30.0733V29.8061H42.4189V30.0733C42.4189 34.0053 38.525 36.7157 33.2569 36.7157ZM33.1805 19.3462C28.2942 19.3462 26.08 21.8657 25.8891 25.9886H40.1284C40.1284 25.7977 40.1284 25.6068 40.1284 25.416C40.1284 21.4458 37.6088 19.3462 33.1805 19.3462ZM51.511 36.7157C47.8081 36.7157 45.2885 34.9597 45.2885 31.9057C45.2885 28.8135 47.8463 27.4774 51.3583 27.0957L60.3294 26.1031V24.6525C60.3294 20.9877 58.7261 19.537 54.6032 19.537C50.5567 19.537 48.4189 20.9877 48.4189 24.3089V24.4616H45.7085V24.3089C45.7085 20.3387 48.9915 17.0938 54.7941 17.0938C60.5203 17.0938 62.9635 20.3769 62.9635 24.5379V36.334H60.5203V31.2567H60.3294C59.2224 34.7306 55.9012 36.7157 51.511 36.7157ZM47.999 31.7148C47.999 33.6236 49.2587 34.6161 52.1218 34.6161C56.7028 34.6161 60.3294 32.5928 60.3294 28.05V27.8973L52.1982 28.8135C49.3732 29.0808 47.999 29.7679 47.999 31.7148ZM70.1294 36.334H67.4189V17.4756H69.8621V22.6292H70.053C70.6256 19.6134 72.7634 17.0938 76.6954 17.0938C81.0474 17.0938 82.9561 20.3005 82.9561 23.8126V25.6832H80.2457V24.2325C80.2457 21.0259 78.9096 19.4607 75.6265 19.4607C71.809 19.4607 70.1294 21.8657 70.1294 26.1031V36.334ZM88.8067 36.334H86.0963V17.4756H88.5395V23.3927H88.7304C89.3793 20.186 92.0516 17.0938 96.7471 17.0938C102.053 17.0938 104.687 20.8732 104.687 25.3396V36.334H101.977V25.7214C101.977 21.8275 100.106 19.5752 95.7927 19.5752C91.2117 19.5752 88.8067 22.362 88.8067 27.2102V36.334ZM118.817 36.334H116.107V10.7568H119.81L128.399 27.4392L130.651 32.1729H130.842L133.056 27.4392L141.608 10.7568H145.349V36.334H142.638V18.3154L142.715 14.8797H142.486L140.882 18.3154L132.369 34.807H129.086L120.573 18.3154L118.932 14.8797H118.741L118.817 18.3154V36.334ZM159.121 36.7157C152.975 36.7157 148.89 32.631 148.89 26.9048C148.89 21.1786 152.975 17.0938 159.121 17.0938C165.305 17.0938 169.39 21.1786 169.39 26.9048C169.39 32.631 165.305 36.7157 159.121 36.7157ZM159.121 34.2725C164.313 34.2725 166.718 31.4858 166.718 26.9048C166.718 22.362 164.313 19.537 159.121 19.537C153.929 19.537 151.562 22.362 151.562 26.9048C151.562 31.4858 153.929 34.2725 159.121 34.2725ZM175.707 36.334H172.996V17.4756H175.44V22.6292H175.63C176.203 19.6134 178.341 17.0938 182.273 17.0938C186.625 17.0938 188.534 20.3005 188.534 23.8126V25.6832H185.823V24.2325C185.823 21.0259 184.487 19.4607 181.204 19.4607C177.386 19.4607 175.707 21.8657 175.707 26.1031V36.334ZM200.645 36.7157C194.575 36.7157 190.719 32.8982 190.719 26.9048C190.719 21.1786 194.537 17.0938 200.607 17.0938C206.142 17.0938 210.074 20.3005 210.074 25.9122C210.074 26.5994 209.998 27.172 209.883 27.6683H193.277C193.43 31.9057 195.606 34.4634 200.607 34.4634C205.035 34.4634 207.096 32.8219 207.096 30.0733V29.8061H209.807V30.0733C209.807 34.0053 205.913 36.7157 200.645 36.7157ZM200.568 19.3462C195.682 19.3462 193.468 21.8657 193.277 25.9886H207.516C207.516 25.7977 207.516 25.6068 207.516 25.416C207.516 21.4458 204.997 19.3462 200.568 19.3462Z" fill="white"/>
</svg>
