<svg width="576" height="543" viewBox="0 0 576 543" fill="none" xmlns="http://www.w3.org/2000/svg">
<rect x="10.9214" y="10.3999" width="279.515" height="521.639" stroke="white" stroke-width="20.2412"/>
<rect x="291.347" y="10.3999" width="274.109" height="262.437" stroke="white" stroke-width="20.2412"/>
<rect x="291.347" y="272.585" width="274.109" height="259.452" stroke="white" stroke-width="20.2412"/>
<path d="M7.86328 378.731C74.5799 377.926 223.447 407.667 285.181 533.063" stroke="white" stroke-width="20.2412"/>
<path d="M0.800781 455.893C47.772 455.49 152.58 470.361 196.044 533.061" stroke="white" stroke-width="20.2412"/>
<path d="M133.918 401.364C152.25 377.57 208.105 333.26 284.864 346.366" stroke="white" stroke-width="20.2412"/>
<path fill-rule="evenodd" clip-rule="evenodd" d="M150.003 269.143C172.28 253.489 186.839 227.594 186.839 198.299C186.839 169.004 172.28 143.109 150.003 127.455C127.727 143.109 113.168 169.004 113.168 198.299C113.168 227.594 127.727 253.489 150.003 269.143Z" fill="white"/>
<path fill-rule="evenodd" clip-rule="evenodd" d="M173.011 278.276C190.26 281.287 208.655 276.132 221.976 262.811C235.298 249.489 240.453 231.094 237.441 213.846C220.193 210.834 201.798 215.989 188.476 229.311C175.155 242.632 170 261.027 173.011 278.276Z" fill="white"/>
<path fill-rule="evenodd" clip-rule="evenodd" d="M128.348 278.27C111.1 281.281 92.7045 276.126 79.3832 262.805C66.0618 249.483 60.9068 231.088 63.9181 213.84C81.1664 210.828 99.5616 215.984 112.883 229.305C126.204 242.626 131.359 261.021 128.348 278.27Z" fill="white"/>
<path d="M432.621 262.467L432.621 85.6562" stroke="white" stroke-width="15.6171"/>
<path d="M432.624 216.679L371.176 106.375" stroke="white" stroke-width="15.6171"/>
<path d="M432.623 144.158L472.945 82.8438" stroke="white" stroke-width="15.6171"/>
<circle cx="336.832" cy="321.598" r="11.9492" fill="white"/>
<circle cx="336.832" cy="355.939" r="11.9492" fill="white"/>
<circle cx="336.832" cy="390.281" r="11.9492" fill="white"/>
<circle cx="336.832" cy="424.623" r="11.9492" fill="white"/>
<circle cx="336.832" cy="458.965" r="11.9492" fill="white"/>
<circle cx="336.832" cy="493.307" r="11.9492" fill="white"/>
<circle cx="373.848" cy="321.598" r="11.9492" fill="white"/>
<circle cx="373.848" cy="355.939" r="11.9492" fill="white"/>
<circle cx="373.848" cy="390.281" r="11.9492" fill="white"/>
<circle cx="373.848" cy="424.623" r="11.9492" fill="white"/>
<circle cx="373.848" cy="458.965" r="11.9492" fill="white"/>
<circle cx="373.848" cy="493.307" r="11.9492" fill="white"/>
<circle cx="410.863" cy="321.598" r="11.9492" fill="white"/>
<circle cx="410.863" cy="355.939" r="11.9492" fill="white"/>
<circle cx="410.863" cy="390.281" r="11.9492" fill="white"/>
<circle cx="410.863" cy="424.623" r="11.9492" fill="white"/>
<circle cx="410.863" cy="458.965" r="11.9492" fill="white"/>
<circle cx="410.863" cy="493.307" r="11.9492" fill="white"/>
<circle cx="447.879" cy="321.598" r="11.9492" fill="white"/>
<circle cx="447.879" cy="355.939" r="11.9492" fill="white"/>
<circle cx="447.879" cy="390.281" r="11.9492" fill="white"/>
<circle cx="447.879" cy="424.623" r="11.9492" fill="white"/>
<circle cx="447.879" cy="458.965" r="11.9492" fill="white"/>
<circle cx="447.879" cy="493.307" r="11.9492" fill="white"/>
<circle cx="484.895" cy="321.598" r="11.9492" fill="white"/>
<circle cx="484.895" cy="355.939" r="11.9492" fill="white"/>
<circle cx="484.895" cy="390.281" r="11.9492" fill="white"/>
<circle cx="484.895" cy="424.623" r="11.9492" fill="white"/>
<circle cx="484.895" cy="458.965" r="11.9492" fill="white"/>
<circle cx="484.895" cy="493.307" r="11.9492" fill="white"/>
<circle cx="521.91" cy="321.598" r="11.9492" fill="white"/>
<circle cx="521.91" cy="355.939" r="11.9492" fill="white"/>
<circle cx="521.91" cy="390.281" r="11.9492" fill="white"/>
<circle cx="521.91" cy="424.623" r="11.9492" fill="white"/>
<circle cx="521.91" cy="458.965" r="11.9492" fill="white"/>
<circle cx="521.91" cy="493.307" r="11.9492" fill="white"/>
</svg>
