<svg width="536" height="271" viewBox="0 0 536 271" fill="none" xmlns="http://www.w3.org/2000/svg">
<path d="M68.297 1.45947C66.0698 1.45947 64.1969 1.86442 62.6783 2.67432C61.261 3.48422 60.0461 4.64846 59.0337 6.16703C58.1226 7.6856 57.3633 9.5585 56.7559 11.7857C56.2497 13.9117 55.7435 16.3414 55.2373 19.0749L42.0258 93.3329C41.2159 98.3948 41.3677 102.242 42.4813 104.874C43.595 107.506 45.8222 108.822 49.163 108.822C52.0989 108.822 54.5286 107.81 56.4522 105.785C58.4769 103.659 59.8943 100.571 60.7042 96.5219L66.9303 61.1392H55.6929L55.8447 60.2281H73.612L67.5377 95.307C66.6266 100.369 64.6018 104.064 61.4634 106.393C58.4263 108.62 54.5793 109.733 49.9223 109.733H47.3408C42.6838 109.733 39.2923 108.367 37.1663 105.633C35.0404 102.799 34.5342 98.3441 35.6478 92.2699L48.7075 18.0119C49.8211 11.4314 51.8458 6.8757 54.7817 4.34475C57.8189 1.8138 61.7672 0.548324 66.6266 0.548324H68.9044C74.0676 0.548324 77.7121 1.66194 79.8381 3.88918C81.9641 6.01518 82.5209 9.86222 81.5085 15.4303L76.9528 41.3978H70.423L74.8268 16.3414C75.2318 14.013 75.4849 11.9376 75.5861 10.1153C75.6874 8.29303 75.5355 6.72384 75.1306 5.40774C74.7256 4.09165 73.9663 3.12989 72.8527 2.52247C71.8403 1.8138 70.3218 1.45947 68.297 1.45947ZM78.5129 86.9549C79.3228 82.0955 81.8538 78.5521 86.1058 76.3249C90.3578 73.9964 96.5333 72.7816 104.632 72.6803L107.062 59.0132C107.973 53.5464 107.973 49.6487 107.062 47.3202C106.252 44.9918 104.278 43.8275 101.14 43.8275C97.9 43.8275 95.4197 45.0424 93.6986 47.4721C91.9776 49.8006 90.6615 53.6476 89.7503 59.0132L87.7762 70.2506H81.3982L83.0686 60.8355C84.1823 54.4575 86.0552 49.9018 88.6873 47.1684C91.4208 44.3337 95.3184 42.9164 100.38 42.9164H101.899C107.062 42.9164 110.504 44.2325 112.225 46.8647C113.946 49.4969 114.25 53.8501 113.136 59.9244L104.632 108.215H98.4062L99.1655 103.204C95.0147 107.557 90.6615 109.733 86.1058 109.733C82.8662 109.733 80.2846 108.569 78.3611 106.241C76.5388 103.912 75.982 100.926 76.6907 97.2811L78.5129 86.9549ZM104.48 73.5915C98.1025 73.6927 93.4455 74.6545 90.5096 76.4768C87.5737 78.299 85.7008 81.488 84.8909 86.0437L82.9168 97.433C82.4106 100.571 82.7143 103.153 83.8279 105.178C85.0428 107.101 86.8144 108.063 89.1429 108.063C92.3825 108.063 95.8246 105.988 99.4692 101.837L104.48 73.5915ZM131.797 44.435L129.215 59.7725H129.519C131.443 54.9131 133.67 51.1673 136.201 48.5351C138.833 45.8017 142.376 44.435 146.831 44.435L145.92 50.2055C140.858 50.2055 136.758 51.8759 133.619 55.2168C130.582 58.5576 128.659 62.6072 127.849 67.3653L120.559 108.215H114.333L125.571 44.435H131.797ZM165.137 108.215L165.896 104.418C162.15 107.962 158.354 109.733 154.507 109.733C150.66 109.733 147.774 108.063 145.851 104.722C144.028 101.28 143.573 96.8256 144.484 91.3587L150.103 59.7725C150.508 57.3428 151.216 55.1156 152.229 53.0908C153.342 50.9648 154.658 49.1425 156.177 47.624C157.696 46.1054 159.366 44.9411 161.188 44.1312C163.112 43.2201 165.035 42.7645 166.959 42.7645C170.401 42.7645 173.438 44.0806 176.07 46.7128L183.967 2.06689H190.193L171.515 108.215H165.137ZM175.918 47.624C173.691 45.1942 171.312 43.9794 168.781 43.9794C165.946 43.9794 163.416 45.3967 161.188 48.2314C158.961 50.9648 157.443 54.5081 156.633 58.8614L150.406 93.7884C149.597 98.2429 149.748 101.786 150.862 104.418C151.976 106.949 153.849 108.215 156.481 108.215C159.315 108.215 162.504 106.544 166.048 103.204L175.918 47.624ZM189.561 93.7884C187.84 103.811 189.864 108.822 195.635 108.822C201.709 108.822 205.607 103.811 207.328 93.7884L208.846 85.2845H215.224L213.858 92.2699C211.934 103.912 206.062 109.733 196.242 109.733H194.724C185.106 109.733 181.36 103.912 183.486 92.2699L189.105 59.9244C190.219 53.7488 192.142 49.3956 194.876 46.8647C197.609 44.2325 201.507 42.9164 206.569 42.9164H207.935C213.098 42.9164 216.591 44.2325 218.413 46.8647C220.337 49.4969 220.742 53.8501 219.628 59.9244L216.743 76.3249H192.598L189.561 93.7884ZM192.75 75.4138H210.517L213.402 59.0132C214.313 54.0526 214.364 50.3068 213.554 47.7758C212.845 45.1436 210.669 43.8275 207.024 43.8275C203.481 43.8275 200.899 45.1436 199.279 47.7758C197.761 50.3068 196.546 54.0526 195.635 59.0132L192.75 75.4138ZM231.748 44.435H237.974L236.76 51.5722C239.088 48.6363 241.467 46.4597 243.897 45.0424C246.327 43.6251 248.604 42.9164 250.73 42.9164C253.768 42.9164 256.147 44.435 257.868 47.4721C259.589 50.5092 259.893 55.0649 258.779 61.1392L250.427 108.215H244.049L252.856 58.7095C253.666 53.7488 253.616 50.1549 252.705 47.9277C251.793 45.7004 250.326 44.5868 248.301 44.5868C246.58 44.5868 244.656 45.3461 242.53 46.8647C240.505 48.282 238.481 50.3068 236.456 52.9389L226.737 108.215H220.511L231.748 44.435ZM292.159 109.733C282.541 109.733 277.733 103.912 277.733 92.2699V59.9244C277.733 53.7488 278.846 49.3956 281.073 46.8647C283.402 44.2325 287.097 42.9164 292.159 42.9164H293.526C298.689 42.9164 302.435 44.2325 304.763 46.8647C307.092 49.4969 308.256 53.8501 308.256 59.9244V92.2699C308.256 103.912 303.396 109.733 293.677 109.733H292.159ZM292.918 108.822C298.891 108.822 301.878 103.811 301.878 93.7884V59.0132C301.878 54.0526 301.27 50.3068 300.055 47.7758C298.841 45.1436 296.462 43.8275 292.918 43.8275C289.375 43.8275 286.996 45.1436 285.781 47.7758C284.667 50.3068 284.111 54.0526 284.111 59.0132V93.7884C284.111 103.811 287.046 108.822 292.918 108.822ZM319.316 16.3414C319.316 11.2795 320.329 7.38189 322.354 4.64846C324.48 1.91504 327.112 0.548324 330.25 0.548324C331.769 0.548324 333.388 0.953277 335.109 1.76318C336.831 2.57309 338.501 3.83856 340.121 5.5596L339.513 6.16703C336.881 3.53485 334.553 2.21876 332.528 2.21876C330.503 2.21876 328.883 3.38299 327.669 5.71146C326.555 7.93869 325.998 10.824 325.998 14.3673V44.435H337.539V45.3461H325.998V108.215H319.316V45.3461H313.85V44.435H319.316V16.3414ZM366.755 2.97804V54.7612H379.967V55.6724H366.755V107.304H383.763V108.215H360.073V2.06689H383.763V2.97804H366.755ZM413.535 108.215V104.418C410.498 107.962 407.056 109.733 403.209 109.733C399.362 109.733 396.173 108.012 393.642 104.57C391.111 101.128 389.846 96.7243 389.846 91.3587V59.7725C389.846 54.8118 391.162 50.7623 393.794 47.624C396.527 44.3843 399.868 42.7645 403.816 42.7645C407.36 42.7645 410.599 44.0806 413.535 46.7128V2.06689H419.913V108.215H413.535ZM413.535 47.624C411.004 45.1942 408.423 43.9794 405.791 43.9794C402.956 43.9794 400.627 45.3967 398.805 48.2314C397.084 50.9648 396.224 54.5081 396.224 58.8614V93.7884C396.224 98.2429 396.983 101.786 398.501 104.418C400.121 106.949 402.247 108.215 404.879 108.215C407.815 108.215 410.701 106.544 413.535 103.204V47.624ZM435.078 93.7884C435.078 103.811 438.013 108.822 443.885 108.822C449.858 108.822 452.845 103.811 452.845 93.7884V85.2845H459.223V92.2699C459.223 103.912 454.363 109.733 444.645 109.733H443.126C433.508 109.733 428.7 103.912 428.7 92.2699V59.9244C428.7 53.7488 429.813 49.3956 432.04 46.8647C434.369 44.2325 438.064 42.9164 443.126 42.9164H444.645C449.808 42.9164 453.503 44.2325 455.73 46.8647C458.059 49.4969 459.223 53.8501 459.223 59.9244V76.3249H435.078V93.7884ZM435.078 75.4138H452.845V59.0132C452.845 54.0526 452.237 50.3068 451.023 47.7758C449.808 45.1436 447.429 43.8275 443.885 43.8275C440.342 43.8275 437.963 45.1436 436.748 47.7758C435.634 50.3068 435.078 54.0526 435.078 59.0132V75.4138ZM468.613 44.435H474.839V51.5722C476.661 48.6363 478.636 46.4597 480.762 45.0424C482.989 43.6251 485.165 42.9164 487.291 42.9164C490.329 42.9164 492.961 44.435 495.188 47.4721C497.415 50.5092 498.529 55.0649 498.529 61.1392V108.215H492.151V58.7095C492.151 53.7488 491.493 50.1549 490.177 47.9277C488.861 45.7004 487.19 44.5868 485.165 44.5868C483.444 44.5868 481.673 45.3461 479.85 46.8647C478.129 48.282 476.459 50.3068 474.839 52.9389V108.215H468.613V44.435ZM13.6973 137.067H20.8346L33.5906 243.215H26.757L22.3532 207.073H6.25635L2.00436 243.215H0.941358L13.6973 137.067ZM22.3532 206.162L14.6085 140.56H14.3048L6.4082 206.162H22.3532ZM43.2216 180.346H37.4511V179.435H43.2216V156.656L49.4478 155.745V179.435H60.6852V180.346H49.4478V232.585C49.4478 239.368 50.7639 242.759 53.396 242.759C54.3072 242.759 55.2689 242.253 56.2813 241.241C57.2937 240.127 58.5086 238.406 59.9259 236.078L60.6852 236.533C57.8505 242 54.8134 244.733 51.5738 244.733C49.0428 244.733 47.0181 243.417 45.4995 240.785C43.9809 238.153 43.2216 234.761 43.2216 230.611V180.346ZM84.0557 179.435H90.4337V228.788C90.4337 233.749 91.0917 237.394 92.4078 239.722C93.8252 241.949 95.4956 243.063 97.4191 243.063C99.1402 243.063 100.861 242.354 102.582 240.937C104.405 239.418 106.126 237.343 107.745 234.711V179.435H114.123V253.086C114.123 264.728 109.365 270.549 99.8488 270.549H98.3302C88.8139 270.549 84.0557 264.728 84.0557 253.086V249.289H90.4337V254.3C90.4337 264.525 93.319 269.638 99.0895 269.638C104.86 269.638 107.745 264.525 107.745 254.3V236.078C105.923 239.013 103.898 241.19 101.671 242.607C99.5451 244.025 97.4697 244.733 95.445 244.733C92.4078 244.733 89.725 243.215 87.3966 240.178C85.1693 237.039 84.0557 232.433 84.0557 226.359V179.435ZM137.04 244.733C127.422 244.733 122.613 238.912 122.613 227.27V194.924C122.613 188.749 123.727 184.396 125.954 181.865C128.282 179.232 131.978 177.916 137.04 177.916H138.406C143.569 177.916 147.315 179.232 149.644 181.865C151.972 184.497 153.136 188.85 153.136 194.924V227.27C153.136 238.912 148.277 244.733 138.558 244.733H137.04ZM137.799 243.822C143.772 243.822 146.758 238.811 146.758 228.788V194.013C146.758 189.053 146.151 185.307 144.936 182.776C143.721 180.144 141.342 178.828 137.799 178.828C134.255 178.828 131.876 180.144 130.662 182.776C129.548 185.307 128.991 189.053 128.991 194.013V228.788C128.991 238.811 131.927 243.822 137.799 243.822ZM191.683 243.215H185.305V236.078C183.483 239.013 181.458 241.19 179.231 242.607C177.105 244.025 175.029 244.733 173.005 244.733C169.968 244.733 167.285 243.215 164.956 240.178C162.729 237.039 161.615 232.433 161.615 226.359V179.435H167.993V228.788C167.993 233.749 168.651 237.394 169.968 239.722C171.385 241.949 173.055 243.063 174.979 243.063C176.7 243.063 178.421 242.354 180.142 240.937C181.964 239.418 183.685 237.343 185.305 234.711V179.435H191.683V243.215ZM207.31 179.435V194.773H207.766C208.879 189.913 210.448 186.167 212.473 183.535C214.599 180.802 217.889 179.435 222.344 179.435V185.206C219.813 185.206 217.586 185.661 215.662 186.572C213.84 187.483 212.271 188.749 210.955 190.369C209.74 191.887 208.829 193.71 208.221 195.836C207.614 197.86 207.31 200.037 207.31 202.365V243.215H201.084V179.435H207.31ZM270.131 243.215L270.891 239.418C267.145 242.962 263.348 244.733 259.501 244.733C255.654 244.733 252.769 243.063 250.846 239.722C249.023 236.28 248.568 231.826 249.479 226.359L255.098 194.773C255.502 192.343 256.211 190.116 257.224 188.091C258.337 185.965 259.653 184.143 261.172 182.624C262.69 181.105 264.361 179.941 266.183 179.131C268.107 178.22 270.03 177.765 271.954 177.765C275.396 177.765 278.433 179.081 281.065 181.713L288.962 137.067H295.188L276.509 243.215H270.131ZM280.913 182.624C278.686 180.194 276.307 178.979 273.776 178.979C270.941 178.979 268.41 180.397 266.183 183.231C263.956 185.965 262.437 189.508 261.627 193.861L255.401 228.788C254.591 233.243 254.743 236.786 255.857 239.418C256.97 241.949 258.843 243.215 261.476 243.215C264.31 243.215 267.499 241.544 271.043 238.204L280.913 182.624ZM299.719 244.733C290.101 244.733 286.355 238.912 288.481 227.27L294.1 194.924C295.213 188.749 297.137 184.396 299.87 181.865C302.604 179.232 306.501 177.916 311.563 177.916H312.93C318.093 177.916 321.586 179.232 323.408 181.865C325.332 184.497 325.737 188.85 324.623 194.924L318.852 227.27C316.929 238.912 311.057 244.733 301.237 244.733H299.719ZM300.63 243.822C306.603 243.822 310.5 238.811 312.323 228.788L318.397 194.013C319.308 189.053 319.359 185.307 318.549 182.776C317.84 180.144 315.663 178.828 312.019 178.828C308.476 178.828 305.894 180.144 304.274 182.776C302.756 185.307 301.541 189.053 300.63 194.013L294.555 228.788C292.733 238.811 294.758 243.822 300.63 243.822ZM338.869 244.733C329.252 244.733 325.506 238.912 327.632 227.27L333.25 194.924C334.364 188.749 336.288 184.396 339.021 181.865C341.754 179.232 345.652 177.916 350.714 177.916H352.081C357.244 177.916 360.737 179.232 362.559 181.865C364.482 184.497 364.887 188.85 363.774 194.924L358.003 227.27C356.08 238.912 350.208 244.733 340.388 244.733H338.869ZM339.78 243.822C345.753 243.822 349.651 238.811 351.473 228.788L357.548 194.013C358.459 189.053 358.509 185.307 357.699 182.776C356.991 180.144 354.814 178.828 351.17 178.828C347.626 178.828 345.045 180.144 343.425 182.776C341.906 185.307 340.691 189.053 339.78 194.013L333.706 228.788C331.884 238.811 333.908 243.822 339.78 243.822ZM382.272 179.435L379.69 194.773H379.994C381.917 189.913 384.145 186.167 386.676 183.535C389.308 180.802 392.851 179.435 397.306 179.435L396.394 185.206C391.333 185.206 387.232 186.876 384.094 190.217C381.057 193.558 379.133 197.607 378.323 202.365L371.034 243.215H364.808L376.046 179.435H382.272ZM406.5 197.81C405.791 201.758 405.943 204.947 406.956 207.377C408.069 209.705 410.094 210.869 413.03 210.869H413.941C418.8 210.869 422.141 212.236 423.964 214.969C425.887 217.602 426.393 221.449 425.482 226.511L425.027 229.548C424.115 234.812 422.293 238.659 419.56 241.089C416.826 243.519 412.979 244.733 408.019 244.733H406.5C401.337 244.733 397.794 243.417 395.87 240.785C394.048 238.153 393.693 233.8 394.807 227.725L396.629 217.399H403.007L401.033 228.485C400.223 233.547 400.173 237.394 400.881 240.026C401.59 242.557 403.767 243.822 407.411 243.822C410.954 243.822 413.485 242.607 415.004 240.178C416.624 237.748 417.788 234.508 418.497 230.459L419.408 224.84C420.218 220.892 420.066 217.754 418.952 215.425C417.94 212.995 415.966 211.78 413.03 211.78H411.967C407.209 211.78 403.868 210.464 401.944 207.832C400.021 205.099 399.515 201.201 400.426 196.139L401.033 193.102C401.944 187.838 403.716 183.991 406.348 181.561C409.082 179.131 412.979 177.916 418.041 177.916H419.408C424.571 177.916 428.064 179.232 429.886 181.865C431.809 184.497 432.214 188.85 431.101 194.924L429.279 205.251H422.901L424.875 194.013C425.786 189.053 425.836 185.307 425.027 182.776C424.318 180.144 422.141 178.828 418.497 178.828C414.953 178.828 412.422 180.042 410.904 182.472C409.385 184.902 408.221 188.141 407.411 192.191L406.5 197.81ZM445.368 180.346H439.598L439.75 179.435H445.52L449.468 156.656L455.998 155.745L451.746 179.435H462.984L462.832 180.346H451.594L442.483 232.585C441.268 239.368 441.977 242.759 444.609 242.759C445.52 242.759 446.532 242.253 447.646 241.241C448.861 240.127 450.43 238.406 452.354 236.078L452.961 236.533C449.013 242 445.469 244.733 442.331 244.733C439.8 244.733 437.978 243.417 436.864 240.785C435.852 238.153 435.7 234.761 436.409 230.611L445.368 180.346ZM465.246 228.788C463.525 238.811 465.55 243.822 471.32 243.822C477.395 243.822 481.292 238.811 483.013 228.788L484.532 220.284H490.91L489.543 227.27C487.62 238.912 481.748 244.733 471.928 244.733H470.409C460.792 244.733 457.046 238.912 459.172 227.27L464.79 194.924C465.904 188.749 467.828 184.396 470.561 181.865C473.294 179.232 477.192 177.916 482.254 177.916H483.621C488.784 177.916 492.277 179.232 494.099 181.865C496.022 184.497 496.427 188.85 495.314 194.924L492.428 211.325H468.283L465.246 228.788ZM468.435 210.414H486.202L489.088 194.013C489.999 189.053 490.049 185.307 489.239 182.776C488.531 180.144 486.354 178.828 482.71 178.828C479.166 178.828 476.585 180.144 474.965 182.776C473.446 185.307 472.231 189.053 471.32 194.013L468.435 210.414ZM513.812 179.435L512.597 186.269C514.723 183.333 516.849 181.207 518.975 179.891C521.202 178.574 523.328 177.916 525.353 177.916C528.593 177.916 531.174 179.536 533.098 182.776C535.021 186.015 535.477 190.521 534.464 196.291L528.846 227.877C527.934 233.04 525.96 237.191 522.923 240.33C519.987 243.367 516.849 244.885 513.508 244.885C511.585 244.885 509.762 244.328 508.041 243.215C506.32 242.101 504.802 240.33 503.486 237.9L497.715 270.549H491.337L507.434 179.435H513.812ZM503.637 236.533C504.751 238.76 505.915 240.38 507.13 241.393C508.446 242.405 509.813 242.911 511.23 242.911C513.559 242.911 515.786 241.595 517.912 238.963C520.139 236.331 521.607 232.939 522.316 228.788L528.542 193.861C529.352 189.306 529.2 185.813 528.086 183.383C526.973 180.954 525.302 179.739 523.075 179.739C521.556 179.739 519.835 180.397 517.912 181.713C516.09 183.029 514.217 185.104 512.293 187.939L503.637 236.533Z" fill="white"/>
</svg>
